<svg data-v-423bf9ae="" xmlns="http://www.w3.org/2000/svg" viewBox="0 0 384 90" class="iconLeft"><!----><!----><!----><g data-v-423bf9ae="" id="af00dd82-7e39-4bbe-a452-06038e6242f6" fill="black" transform="matrix(5.5652174949646,0,0,5.5652174949646,138.21739196777344,2.5434775352478027)"><path d="M8.89 12.21C8.45 12.21 8.14 11.92 8.14 11.25L8.14 5.88L7.32 5.88L7.32 7.09C6.65 6.27 5.64 5.74 4.50 5.74C2.49 5.74 0.86 7.37 0.86 9.38C0.86 11.39 2.49 13.02 4.50 13.02C5.65 13.02 6.69 12.48 7.33 11.62C7.46 12.46 8.00 13.02 8.84 13.02C9.03 13.02 9.22 12.97 9.36 12.88L9.36 12.21ZM4.50 12.20C2.92 12.20 1.66 10.96 1.66 9.38C1.66 7.81 2.92 6.56 4.50 6.56C6.06 6.56 7.32 7.81 7.32 9.38C7.32 10.96 6.06 12.20 4.50 12.20ZM14.51 2.38L10.92 2.38L10.92 12.88L11.76 12.88L11.76 8.10L14.51 8.10C16.10 8.10 17.38 6.84 17.38 5.25C17.38 3.66 16.10 2.38 14.51 2.38ZM14.44 7.30L11.76 7.30L11.76 3.20L14.44 3.20C15.61 3.20 16.54 4.06 16.54 5.25C16.54 6.49 15.61 7.30 14.44 7.30ZM26.65 12.21C26.22 12.21 25.90 11.92 25.90 11.25L25.90 5.88L25.08 5.88L25.08 7.09C24.41 6.27 23.40 5.74 22.26 5.74C20.25 5.74 18.62 7.37 18.62 9.38C18.62 11.39 20.25 13.02 22.26 13.02C23.42 13.02 24.45 12.48 25.10 11.62C25.22 12.46 25.76 13.02 26.60 13.02C26.79 13.02 26.99 12.97 27.13 12.88L27.13 12.21ZM22.26 12.20C20.69 12.20 19.43 10.96 19.43 9.38C19.43 7.81 20.69 6.56 22.26 6.56C23.82 6.56 25.08 7.81 25.08 9.38C25.08 10.96 23.82 12.20 22.26 12.20ZM36.21 12.21C35.77 12.21 35.46 11.92 35.46 11.25L35.46 5.88L34.63 5.88L34.63 7.09C33.97 6.27 32.95 5.74 31.82 5.74C29.80 5.74 28.18 7.37 28.18 9.38C28.18 11.39 29.80 13.02 31.82 13.02C32.97 13.02 34.00 12.48 34.65 11.62C34.77 12.46 35.32 13.02 36.16 13.02C36.35 13.02 36.54 12.97 36.68 12.88L36.68 12.21ZM31.82 12.20C30.24 12.20 28.98 10.96 28.98 9.38C28.98 7.81 30.24 6.56 31.82 6.56C33.37 6.56 34.63 7.81 34.63 9.38C34.63 10.96 33.37 12.20 31.82 12.20ZM40.83 13.02C42.53 13.02 44.03 12.04 44.03 10.20C44.03 6.72 38.80 7.56 38.80 4.85C38.80 3.66 39.78 3.08 40.83 3.08C41.70 3.08 42.44 3.48 42.84 4.06L43.51 3.52C42.96 2.80 41.98 2.24 40.81 2.24C39.30 2.24 37.96 3.20 37.96 4.90C37.96 8.28 43.19 7.46 43.19 10.24C43.19 11.48 42.12 12.18 40.85 12.18C39.57 12.18 38.62 11.48 38.26 10.50L37.48 10.94C37.99 12.16 39.27 13.02 40.83 13.02Z"></path></g><!----><g data-v-423bf9ae="" id="c14a1254-6e2e-49d8-afa5-e35fbd14cca1" transform="matrix(1.5,0,0,1.5,-13,-30)" stroke="none" fill="black"><path style="text-indent:0;text-transform:none;block-progression:tb" d="M38 20c-12.138 0-22 9.862-22 22 0 1.382.193 2.692.438 4C11.944 49.475 9 54.885 9 61c0 10.482 8.518 19 19 19h46c9.377 0 17-7.623 17-17 0-8.605-6.445-15.638-14.75-16.75.437-1.352.75-2.753.75-4.25 0-7.72-6.28-14-14-14-2.489 0-4.78.732-6.813 1.875C52.248 23.968 45.633 20 38 20zm0 2c7.24 0 13.549 3.837 17.063 9.594a1 1 0 0 0 1.374.312C58.318 30.682 60.582 30 63 30c6.64 0 12 5.36 12 12 0 1.656-.33 3.219-.938 4.656a1 1 0 0 0 .844 1.407C82.77 48.538 89 55.014 89 63c0 8.296-6.704 15-15 15H28c-9.4 0-17-7.6-17-17 0-5.674 2.796-10.69 7.063-13.781a1 1 0 0 0 .375-1.031A19.889 19.889 0 0 1 18 42c0-11.058 8.943-20 20-20zm13.875 18c-.397.051-.747.33-.844.719l-8 28c-.139.507.212 1.11.719 1.25.507.139 1.08-.212 1.219-.719l8-28c.194-.639-.432-1.341-1.094-1.25zM37 43.969a.998.998 0 0 0-.531.156l-16 10c-.618.363-.639 1.307 0 1.719l16 10c.45.282 1.127.139 1.406-.313.28-.452.11-1.13-.344-1.406L22.906 55l14.625-9.156c.393-.216.622-.725.5-1.156-.122-.431-.584-.741-1.031-.72zm21.969 0c-.442-.01-.855.323-.969.75-.114.427.082.91.469 1.125L73.094 55l-14.625 9.125c-.454.276-.592.954-.313 1.406.28.452.925.595 1.375.313l16-10c.632-.392.593-1.366 0-1.719l-16-10a1.007 1.007 0 0 0-.562-.156z" overflow="visible" color="#000"></path></g><!----></svg>